<svg width="125" height="49" viewBox="0 0 125 49" fill="none" xmlns="http://www.w3.org/2000/svg">
<path d="M10.04 1.496C15.1173 1.496 19.1307 2.20533 22.08 3.624C25.0667 5.00533 27.3253 6.55467 28.856 8.272C30.088 9.69067 31.096 11.3333 31.88 13.2C32.664 15.0293 33.056 17.232 33.056 19.808C33.056 21.712 32.6267 23.7093 31.768 25.8C30.9093 27.8533 29.7893 29.5147 28.408 30.784C26.952 32.1653 25.5707 33.2853 24.264 34.144C22.9947 35.0027 21.2587 35.712 19.056 36.272C16.8907 36.7947 14.128 37.056 10.768 37.056C8.22933 37.056 5.93333 36.776 3.88 36.216C1.82667 35.6187 0.8 34.6293 0.8 33.248C0.8 32.688 1.04267 32.2587 1.528 31.96C2.05067 31.624 2.61067 31.456 3.208 31.456C3.544 31.456 3.768 31.4747 3.88 31.512C4.14133 29.048 4.272 26.4347 4.272 23.672C4.272 20.5733 4.19733 18.016 4.048 16C3.89867 13.9467 3.69333 11.912 3.432 9.896C3.39467 9.63467 3.30133 8.90667 3.152 7.712C3.04 6.51733 2.984 5.304 2.984 4.072C2.984 3.288 3.376 2.63467 4.16 2.112C4.944 1.552 5.74667 1.272 6.568 1.272C7.05333 1.272 7.70667 1.30933 8.528 1.384C9.2 1.45867 9.704 1.496 10.04 1.496ZM9.312 31.792C10.208 31.9413 11.384 32.016 12.84 32.016C15.304 32.016 17.6373 31.512 19.84 30.504C22.0427 29.4587 23.816 28.0213 25.16 26.192C26.504 24.3253 27.176 22.1787 27.176 19.752C27.176 17.2133 26.728 15.048 25.832 13.256C24.936 11.464 23.5547 9.98933 21.688 8.832C20.3067 7.97333 18.608 7.35733 16.592 6.984C14.576 6.57333 12.1493 6.368 9.312 6.368C9.312 7.264 9.368 8.384 9.48 9.728C9.48 10.176 9.51733 10.96 9.592 12.08C9.816 16.4107 9.928 19.9013 9.928 22.552C9.928 26.3973 9.72267 29.4773 9.312 31.792ZM40.9021 1.048C42.2088 1.16 43.3475 1.51466 44.3181 2.112C45.2888 2.672 45.7741 3.53066 45.7741 4.688C45.7741 5.54667 45.3635 6.23733 44.5421 6.76C43.7581 7.24533 42.8061 7.488 41.6861 7.488C40.6035 7.488 39.8568 7.208 39.4461 6.648C39.0355 6.088 38.8301 5.50933 38.8301 4.912C38.8301 3.792 38.9421 2.85866 39.1661 2.112C39.4275 1.36533 40.0061 1.01067 40.9021 1.048ZM45.3821 25.856V27.48C45.3821 28.936 45.4195 30.3173 45.4941 31.624C45.6061 32.8933 45.7368 34.1813 45.8861 35.488C45.8488 35.8613 45.5688 36.2533 45.0461 36.664C44.5235 37.0373 44.0568 37.224 43.6461 37.224C42.9368 37.224 42.2088 37.0933 41.4621 36.832C40.7528 36.5333 40.3235 36.1787 40.1741 35.768C39.9501 34.5733 39.8381 33.5093 39.8381 32.576C39.8381 29.5147 39.7448 26.08 39.5581 22.272C39.4088 18.912 39.3341 16.56 39.3341 15.216C39.3341 14.544 39.6701 13.9653 40.3421 13.48C41.0141 12.9947 41.7235 12.752 42.4701 12.752C43.5528 12.752 44.2995 12.9947 44.7101 13.48C45.1581 13.9653 45.3821 14.7307 45.3821 15.776V25.856ZM73.6543 37.224C72.3849 37.224 71.4143 37.0373 70.7423 36.664C70.0703 36.2533 69.3423 35.5067 68.5583 34.424C67.5876 35.2827 66.1316 35.9733 64.1902 36.496C62.2863 37.0187 60.6436 37.28 59.2623 37.28C56.9849 37.28 55.1369 36.664 53.7183 35.432C52.3369 34.1627 51.6463 32.3147 51.6463 29.888C51.6463 28.8427 51.9263 27.8907 52.4863 27.032C53.0836 26.136 53.8489 25.352 54.7823 24.68C55.8276 23.9707 57.0596 23.4107 58.4783 23C59.9343 22.5893 61.2596 22.384 62.4543 22.384C64.4703 22.384 66.2623 22.5707 67.8303 22.944V22.888C67.8303 20.872 67.3263 19.4907 66.3183 18.744C65.3476 17.96 63.7796 17.568 61.6143 17.568C60.2329 17.568 59.0383 18.184 58.0303 19.416C57.6569 19.9013 56.8729 20.144 55.6783 20.144C55.0809 20.144 54.6329 19.9013 54.3343 19.416C54.0729 18.8933 53.9423 18.3707 53.9423 17.848C53.9423 16.7653 54.3903 15.832 55.2863 15.048C56.2196 14.264 57.3396 13.6853 58.6463 13.312C59.9529 12.9013 61.1663 12.696 62.2863 12.696C63.3689 12.696 64.6569 12.92 66.1503 13.368C67.6436 13.816 68.8569 14.4133 69.7903 15.16C70.9103 16.1307 71.7689 17.2693 72.3663 18.576C73.0009 19.8453 73.3183 21.2453 73.3183 22.776C73.3183 23.2613 73.2809 23.9893 73.2063 24.96C73.1316 26.08 73.0943 26.9947 73.0943 27.704C73.0943 28.04 73.0569 28.4693 72.9823 28.992C72.9076 29.664 72.8703 30.224 72.8703 30.672C72.8703 31.1573 73.0196 31.624 73.3183 32.072C73.6169 32.52 74.0276 32.8933 74.5503 33.192C75.0356 33.4533 75.3529 33.7333 75.5023 34.032C75.6516 34.3307 75.7263 34.6667 75.7263 35.04C75.7263 35.4133 75.4836 35.88 74.9983 36.44C74.5503 36.9627 74.1023 37.224 73.6543 37.224ZM62.4543 26.528C60.9983 26.528 59.7103 26.808 58.5903 27.368C57.4703 27.928 56.9103 28.9173 56.9103 30.336C56.9103 31.0453 57.1529 31.6427 57.6382 32.128C58.1609 32.6133 58.7209 32.856 59.3183 32.856C60.9236 32.856 62.2676 32.688 63.3503 32.352C64.4329 32.016 65.7396 31.4 67.2703 30.504C67.4569 29.9067 67.5689 29.0667 67.6063 27.984C67.6063 27.5733 67.6249 27.256 67.6623 27.032C65.6463 26.696 63.9103 26.528 62.4543 26.528ZM88.2248 34.76C88.2248 35.3947 87.9821 35.9547 87.4968 36.44C87.0114 36.9253 86.4141 37.168 85.7048 37.168C84.5848 37.168 83.7634 36.9627 83.2408 36.552C82.7181 36.104 82.4568 35.3013 82.4568 34.144C82.4568 32.7627 82.4194 30.952 82.3448 28.712C82.2701 26.8453 82.2328 25.2773 82.2328 24.008C82.2328 23.4107 82.2701 22.6267 82.3448 21.656C82.4194 20.76 82.4568 20.088 82.4568 19.64C82.3448 18.9307 82.0648 18.352 81.6168 17.904C81.1688 17.4187 80.5901 17.176 79.8808 17.176C79.5448 17.176 79.2648 17.0267 79.0408 16.728C78.8168 16.392 78.7048 16.056 78.7048 15.72C78.7048 14.8613 79.0408 14.208 79.7128 13.76C80.4221 13.312 81.2621 13.088 82.2328 13.088C84.2488 13.088 85.6488 14.2827 86.4328 16.672C87.4034 15.552 88.5048 14.656 89.7368 13.984C91.0061 13.2747 92.2194 12.92 93.3768 12.92C94.7581 12.92 96.0088 13.2933 97.1288 14.04C98.2861 14.7867 98.8648 15.7947 98.8648 17.064C98.8648 17.7733 98.5474 18.5013 97.9128 19.248C97.3154 19.9947 96.6994 20.368 96.0648 20.368C95.7288 20.368 95.4301 20.2933 95.1688 20.144C94.9448 19.9573 94.6648 19.696 94.3288 19.36C93.9554 18.9867 93.6381 18.7253 93.3768 18.576C93.1154 18.3893 92.8168 18.296 92.4808 18.296C91.8834 18.296 91.3234 18.3893 90.8008 18.576C90.2781 18.7627 89.9234 18.9867 89.7368 19.248C89.1394 20.1813 88.6914 21.0213 88.3928 21.768C88.1314 22.5147 88.0008 23.3173 88.0008 24.176C88.0008 24.8107 87.9821 25.3147 87.9448 25.688L87.8888 28.88C87.8888 29.3653 87.9074 29.9067 87.9448 30.504C87.9821 31.1013 88.0194 31.5493 88.0568 31.848C88.1688 32.856 88.2248 33.8267 88.2248 34.76ZM108.299 48.424C106.245 48.424 104.752 48.0507 103.819 47.304C102.923 46.5947 102.475 45.8107 102.475 44.952C102.475 43.6453 103.091 42.992 104.323 42.992C104.696 42.992 105.181 43.104 105.779 43.328C106.376 43.5893 106.936 43.72 107.459 43.72C108.28 43.72 108.952 43.1787 109.475 42.096C109.997 41.0133 110.52 39.2587 111.043 36.832C109.885 35.488 108.467 33.36 106.787 30.448C105.144 27.536 103.725 24.68 102.531 21.88C101.336 19.0427 100.739 17.0267 100.739 15.832C100.739 14.8987 101.056 14.208 101.691 13.76C102.363 13.312 103.128 13.088 103.987 13.088C104.659 13.088 105.181 13.2187 105.555 13.48C105.928 13.704 106.189 14.1333 106.339 14.768C107.235 17.9413 108.187 20.7227 109.195 23.112C110.24 25.5013 111.565 28.096 113.171 30.896C113.805 29.44 114.645 26.9573 115.691 23.448C116.848 19.528 117.819 16.7467 118.603 15.104C118.939 14.432 119.349 13.8907 119.835 13.48C120.357 13.0693 120.936 12.864 121.571 12.864C122.205 12.864 122.877 13.1067 123.587 13.592C124.333 14.04 124.707 14.5813 124.707 15.216C124.707 15.5893 124.576 16.0373 124.315 16.56C122.859 19.92 121.571 23.0933 120.451 26.08C119.368 29.0293 118.323 32.2773 117.315 35.824C116.717 37.8027 116.083 39.688 115.411 41.48C114.776 43.272 114.328 44.3733 114.067 44.784C113.32 45.8293 112.48 46.688 111.547 47.36C110.613 48.0693 109.531 48.424 108.299 48.424Z" fill="black"/>
</svg>
